# xmcd
# 
# Track frame offsets:
#     150
#     64125
#     112200
#     135055
#     216375
# 
# Disc length: 4064
# 
# Revision: 2
# Processed by: cddbd v1.5.2PL0 Copyright (c) Steve Scherf et al.
# Submitted via: fre:ac v1.0.17
# 
DISCID=480fde05
DTITLE=Karl Böhm, Wiener Philharmoniker - Brahms  Symphony No.1
DYEAR=1975
DGENRE=Classical
TTITLE0=Brahms - Symphony No.1 in C minor, op.68 - I. Un poco sostenuto-Allegro
TTITLE1=Brahms - Symphony No.1 in C minor, op.68 - II. Andante sostenuto
TTITLE2=Brahms - Symphony No.1 in C minor, op.68 - III. Un poco Allegretto e grazioso
TTITLE3=Brahms - Symphony No.1 in C minor, op.68 - IV. Adagio - Allegro non troppo, ma con brio
TTITLE4=Brahms - Variations on a Theme by Joseph Haydn, op. 56a
EXTD=YEAR: 1975
EXTT0=
EXTT1=
EXTT2=
EXTT3=
EXTT4=
PLAYORDER=
